<?xml version="1.0" encoding="utf-8"?>
<svg width="24" height="24" viewBox="0 0 24 24" xmlns="http://www.w3.org/2000/svg" xmlns:bx="https://boxy-svg.com">
  <path fill="none" d="M0 0h24v24H0V0z"/>
  <path d="M 20.85 14.766 L 20.85 5.726 C 20.85 4.626 19.95 3.726 18.85 3.726 L 4.86 3.726 C 3.76 3.726 2.86 4.626 2.86 5.726 L 2.86 15.726 C 2.86 16.826 3.76 17.726 4.86 17.726 L 14.91 17.726 C 15.19 19.646 17.01 21.076 19.09 20.656 C 20.43 20.386 21.52 19.286 21.79 17.946 C 22.04 16.706 21.63 15.556 20.85 14.766 Z M 18.85 5.726 L 11.86 9.226 L 4.86 5.726 L 18.85 5.726 Z M 15.21 15.726 L 4.86 15.726 L 4.86 7.726 L 11.86 11.226 L 18.86 7.726 L 18.86 13.776 C 18.7 13.756 18.53 13.726 18.36 13.726 C 16.97 13.726 15.77 14.546 15.21 15.726 Z M 20.36 17.726 L 16.36 17.726 L 16.36 16.726 L 20.36 16.726 L 20.36 17.726 Z" bx:origin="0.474 0.437"/>
  <circle style="fill: rgb(255, 255, 255);" cx="18.328" cy="17.239" r="3.083" transform="matrix(2.209386, -0.006277, 0.005714, 2.010788, -23.758896, -18.441442)"/>
  <rect x="52.03" y="39.491" width="3.27" height="9.528" style="" transform="matrix(0.999999, -0.001558, 0.001581, 0.999999, -37.293633, -28.564928)"/>
  <rect x="11.316" y="14.024" width="10.056" height="3.242" style=""/>
</svg>