<svg xmlns="http://www.w3.org/2000/svg" width="32" height="32" viewBox="0 0 32 32"><path style="line-height:normal;text-indent:0;text-align:start;text-decoration-line:none;text-decoration-style:solid;text-decoration-color:#000;text-transform:none;block-progression:tb;white-space:normal;isolation:auto;mix-blend-mode:normal;solid-color:#000;solid-opacity:1" d="M 14.865234 3 C 12.73031 3 10.988245 4.7408 10.988281 6.875 C 10.98829 7.5506632 11.177978 8.1764197 11.484375 8.7304688 L 6.3261719 13.150391 C 6.0473378 13.043401 5.7489546 12.978516 5.4335938 12.978516 C 4.0489336 12.978516 2.9160169 14.109741 2.9160156 15.494141 C 2.9160169 16.878441 4.0489336 18.011719 5.4335938 18.011719 C 5.6778154 18.011719 5.9090885 17.964102 6.1328125 17.898438 L 10.533203 25.230469 C 10.313504 25.56356 10.181662 25.96043 10.181641 26.386719 C 10.181627 27.548319 11.133167 28.5 12.294922 28.5 C 13.286313 28.5 14.12075 27.804021 14.345703 26.878906 L 18.794922 26.611328 C 18.909621 27.66694 19.799993 28.5 20.884766 28.5 C 22.04652 28.5 23.000013 27.548319 23 26.386719 C 22.999968 25.757099 22.715084 25.194789 22.273438 24.806641 L 25.443359 18.007812 C 25.456672 18.008023 25.469062 18.011719 25.482422 18.011719 C 26.867082 18.011719 27.999999 16.878441 28 15.494141 C 27.999999 14.109741 26.867082 12.978516 25.482422 12.978516 C 25.166293 12.978516 24.865493 13.042904 24.585938 13.150391 L 18.548828 8.015625 C 18.661958 7.6525251 18.74023 7.2745089 18.740234 6.875 C 18.740271 4.7408 17.000159 3 14.865234 3 z M 14.865234 4 C 16.459985 4 17.740262 5.2815 17.740234 6.875 C 17.740214 8.4685 16.459951 9.75 14.865234 9.75 C 13.270517 9.75 11.988301 8.4685 11.988281 6.875 C 11.988254 5.2815 13.270483 4 14.865234 4 z M 18.119141 8.9609375 L 23.707031 13.712891 C 23.247949 14.169074 22.962891 14.799975 22.962891 15.494141 C 22.962891 15.55649 22.975945 15.614532 22.980469 15.675781 L 17.730469 16.568359 C 17.38339 15.736585 16.559622 15.148438 15.605469 15.148438 C 14.633528 15.148438 13.802099 15.76078 13.466797 16.617188 L 7.9335938 15.675781 C 7.9381098 15.614532 7.9511718 15.55649 7.9511719 15.494141 C 7.9511712 14.799975 7.665624 14.169074 7.2070312 13.712891 L 12.072266 9.5449219 C 12.77892 10.282865 13.766978 10.75 14.865234 10.75 C 16.230724 10.75 17.428678 10.032695 18.119141 8.9609375 z M 5.4335938 13.978516 C 6.2780866 13.978516 6.9511711 14.650441 6.9511719 15.494141 C 6.9511711 16.337741 6.2780867 17.011719 5.4335938 17.011719 C 4.5891006 17.011719 3.9160164 16.337741 3.9160156 15.494141 C 3.9160164 14.650441 4.5891006 13.978516 5.4335938 13.978516 z M 25.482422 13.978516 C 26.326915 13.978516 26.999999 14.650441 27 15.494141 C 26.999999 16.337741 26.326915 17.011719 25.482422 17.011719 C 24.637929 17.011719 23.962891 16.337741 23.962891 15.494141 C 23.962891 14.650441 24.637929 13.978516 25.482422 13.978516 z M 15.605469 16.148438 C 16.238007 16.148438 16.757086 16.58587 16.878906 17.177734 L 16.880859 17.189453 C 16.897059 17.272003 16.906248 17.357627 16.90625 17.445312 C 16.906237 18.168113 16.330115 18.744141 15.605469 18.744141 C 14.880823 18.744141 14.304701 18.168113 14.304688 17.445312 C 14.3047 16.722612 14.880823 16.148438 15.605469 16.148438 z M 7.6582031 16.642578 L 13.320312 17.607422 C 13.381284 18.453391 13.900772 19.173324 14.634766 19.519531 L 12.511719 24.294922 C 12.439353 24.287338 12.369184 24.273438 12.294922 24.273438 C 11.92879 24.273438 11.588279 24.375175 11.287109 24.541016 L 7.0175781 17.431641 C 7.2817812 17.214911 7.499229 16.947864 7.6582031 16.642578 z M 23.255859 16.644531 C 23.516549 17.143631 23.933006 17.546936 24.447266 17.78125 L 21.386719 24.339844 C 21.224784 24.299751 21.058508 24.273438 20.884766 24.273438 C 20.467112 24.273438 20.078873 24.399783 19.75 24.611328 L 17.388672 18.875 C 17.684924 18.507757 17.870216 18.054242 17.894531 17.554688 L 23.255859 16.644531 z M 16.572266 19.521484 L 19.007812 25.439453 C 18.980317 25.493456 18.94864 25.545053 18.925781 25.601562 L 14.339844 25.876953 C 14.209584 25.359623 13.892613 24.91522 13.458984 24.626953 L 15.628906 19.742188 C 15.96633 19.738683 16.283678 19.656931 16.572266 19.521484 z M 12.294922 25.273438 C 12.916477 25.273438 13.410125 25.765919 13.410156 26.386719 C 13.410163 27.007619 12.916505 27.5 12.294922 27.5 C 11.673339 27.5 11.181633 27.007619 11.181641 26.386719 C 11.181672 25.765919 11.673367 25.273438 12.294922 25.273438 z M 20.884766 25.273438 C 21.506321 25.273438 21.999969 25.765919 22 26.386719 C 22.000007 27.007619 21.506349 27.5 20.884766 27.5 C 20.263182 27.5 19.771477 27.007619 19.771484 26.386719 C 19.771516 25.765919 20.263211 25.273438 20.884766 25.273438 z " color="#000" enable-background="accumulate" font-family="sans-serif" font-weight="400" overflow="visible"/></svg>